# xmcd
#
# Track frame offsets:
#	150
#	13350
#	26710
#	37165
#	50752
#	62120
#	75742
#	86864
#	100598
#	112029
#	124671
#	137230
#	149782
#	161442
#	175238
#	188428
#	202925
#	213988
#	229169
#	240410
#	251689
#	262831
#	276737
#	289434
#	301522
#	311769
#
# Disc length: 4301 seconds
#
# Revision: 2
# Processed by: cddbd v1.5.1PL2 Copyright (c) Steve Scherf et al.
# Submitted via: EasyCDDAExtractor 9.0.0.1
#
DISCID=8610cb1a
DTITLE=Various Artist - Cool, Cool Blues, The Classic Sides (1951-54) - Disc 
DTITLE=C (Jackson, Houston, Memphis)
DYEAR=2006
DGENRE=Blues
TTITLE0=Willie Love - Take It Easy Baby
TTITLE1=Willie Love - Little Car Blues
TTITLE2=Willie Love - Everybody's Fishing
TTITLE3=Willie Love - My Own Boogie
TTITLE4=Willie Love - Feed My Body To The Fishes
TTITLE5=Willie Love - Falling Rain
TTITLE6=Willie Love - Vanity Dresser Boogie
TTITLE7=Willie Love - Seventy Four Blues
TTITLE8=Willie Love - 21 Minutes To Nine
TTITLE9=Willie Love - Shady Lane Blues
TTITLE10=Willie Love - Nelson Street Blues
TTITLE11=Willie Love - V-8 Ford
TTITLE12=Willie Love - Shout Brother, Shout
TTITLE13=Willie Love - Way Back
TTITLE14=Sherman 'Blues' Johnson - Pretty Baby Blues
TTITLE15=Sherman 'Blues' Johnson - Sugar Mama
TTITLE16=Sherman 'Blues' Johnson - Hot Fish
TTITLE17=Sherman 'Blues' Johnson - Lost In Korea
TTITLE18=Tiny Kennedy - Early In The Morning Baby
TTITLE19=Tiny Kennedy - Strange Kind Of Feeling
TTITLE20=Tiny Kennedy - Blues Disease
TTITLE21=Tiny Kennedy - Don't Lay This Job On Me
TTITLE22=Tiny Kennedy - Have You Heard About The Farmer's Daughter
TTITLE23=Wally Mercer - Too Old To Get Married
TTITLE24=Wally Mercer - If You Don't Mean Business
TTITLE25=Wally Mercer - Hey, Miss Lula
EXTD=YEAR: 2006
EXTT0=
EXTT1=
EXTT2=
EXTT3=
EXTT4=
EXTT5=
EXTT6=
EXTT7=
EXTT8=
EXTT9=
EXTT10=
EXTT11=
EXTT12=
EXTT13=
EXTT14=
EXTT15=
EXTT16=
EXTT17=
EXTT18=
EXTT19=
EXTT20=
EXTT21=
EXTT22=
EXTT23=
EXTT24=
EXTT25=
PLAYORDER=
